<svg width="20" height="19" viewBox="0 0 20 19" fill="none" xmlns="http://www.w3.org/2000/svg">
<path d="M14.5 10.0178C14.7485 10.0178 14.95 9.82562 14.95 9.58857C14.95 9.35153 14.7485 9.1593 14.5 9.1593C14.2515 9.1593 14.05 9.35153 14.05 9.58857C14.05 9.82562 14.2515 10.0178 14.5 10.0178Z" fill="#989898" stroke="#989898" stroke-width="1.5" stroke-linecap="round" stroke-linejoin="round"/>
<path d="M9.99999 10.0178C10.2485 10.0178 10.45 9.82562 10.45 9.58857C10.45 9.35153 10.2485 9.1593 9.99999 9.1593C9.7515 9.1593 9.54999 9.35153 9.54999 9.58857C9.54999 9.82562 9.7515 10.0178 9.99999 10.0178Z" fill="#989898" stroke="#989898" stroke-width="1.5" stroke-linecap="round" stroke-linejoin="round"/>
<path d="M5.49999 10.0178C5.74851 10.0178 5.94999 9.82562 5.94999 9.58857C5.94999 9.35153 5.74851 9.1593 5.49999 9.1593C5.25146 9.1593 5.04999 9.35153 5.04999 9.58857C5.04999 9.82562 5.25146 10.0178 5.49999 10.0178Z" fill="#989898" stroke="#989898" stroke-width="1.5" stroke-linecap="round" stroke-linejoin="round"/>
<path d="M10 18.1743C14.9705 18.1743 19 14.3304 19 9.58886C19 4.84725 14.9705 1.00342 10 1.00342C5.02943 1.00342 1 4.84725 1 9.58886C1 11.1526 1.43827 12.6187 2.20404 13.8816L1.45 17.745L5.5 17.0257C6.82378 17.7562 8.36074 18.1743 10 18.1743Z" stroke="#989898" stroke-width="1.5" stroke-linecap="round" stroke-linejoin="round"/>
</svg>
