<svg width="30" height="24" viewBox="0 0 30 24" fill="none" xmlns="http://www.w3.org/2000/svg">
<rect x="0.75" y="3.75" width="21.5" height="19.5" rx="1.25" stroke="#626262" stroke-width="1.5"/>
<line y1="7.25" x2="23" y2="7.25" stroke="#626262" stroke-width="1.5"/>
<line x1="10" y1="10.25" x2="20" y2="10.25" stroke="#626262" stroke-width="1.5"/>
<line x1="9" y1="13.25" x2="20" y2="13.25" stroke="#626262" stroke-width="1.5"/>
<path d="M7 16.25H19.9824" stroke="#626262" stroke-width="1.5"/>
<line x1="10" y1="19.25" x2="20" y2="19.25" stroke="#626262" stroke-width="1.5"/>
<line x1="3" y1="10.25" x2="7" y2="10.25" stroke="#626262" stroke-width="1.5"/>
<line x1="3" y1="13.25" x2="6" y2="13.25" stroke="#626262" stroke-width="1.5"/>
<line x1="3" y1="16.25" x2="6" y2="16.25" stroke="#626262" stroke-width="1.5"/>
<line x1="4" y1="19.25" x2="7" y2="19.25" stroke="#626262" stroke-width="1.5"/>
<path d="M13.6894 19.0308L13.9095 15.0675L15.5759 16.9235L17.6832 18.8102L13.6894 19.0308Z" fill="#9F9F9F"/>
<path d="M26.1766 2.67189L27.407 3.88186C27.9288 4.39495 27.9813 5.27418 27.5242 5.84567L18.0903 17.6419C17.6374 18.2081 16.8532 18.2606 16.3303 17.7596L15.6723 17.1291L15.0746 16.5256C14.5639 16.0099 14.5172 15.1404 14.97 14.5743L24.4043 2.77764C24.8614 2.20615 25.6548 2.1588 26.1766 2.67189Z" stroke="#9F9F9F" stroke-width="1.35"/>
<line x1="23.8735" y1="4.32178" x2="26.5512" y2="6.73624" stroke="#9F9F9F"/>
</svg>
