<?xml version="1.0" encoding="utf-8"?>
<!-- Generator: Adobe Illustrator 27.7.0, SVG Export Plug-In . SVG Version: 6.00 Build 0)  -->
<svg version="1.1" id="레이어_1" xmlns="http://www.w3.org/2000/svg" xmlns:xlink="http://www.w3.org/1999/xlink" x="0px"
	 y="0px" viewBox="0 0 26 27" style="enable-background:new 0 0 26 27;" xml:space="preserve">
<style type="text/css">
	.st0{fill:#231815;fill-opacity:1.000000e-02;}
	.st1{fill:#231815;}
</style>
<path class="st0" d="M0,0.8h26v25.9H0V0.8z"/>
<path class="st1" d="M13,8.9c0.9,0,1.6-0.7,1.6-1.6S13.9,5.6,13,5.6s-1.6,0.7-1.6,1.6S12.1,8.9,13,8.9z"/>
<path class="st1" d="M13,15.3c0.9,0,1.6-0.7,1.6-1.6s-0.7-1.6-1.6-1.6s-1.6,0.7-1.6,1.6S12.1,15.3,13,15.3z"/>
<path class="st1" d="M13,21.3c0.9,0,1.6-0.7,1.6-1.6c0-0.9-0.7-1.6-1.6-1.6s-1.6,0.7-1.6,1.6C11.4,20.5,12.1,21.3,13,21.3z"/>
</svg>
