<svg width="26" height="27" viewBox="0 0 26 27" fill="none" xmlns="http://www.w3.org/2000/svg">
<path d="M0 0.797363H26V26.6623H0V0.797363Z" fill="white" fill-opacity="0.01"/>
<path d="M13 8.88009C13.8975 8.88009 14.625 8.15633 14.625 7.26353C14.625 6.37073 13.8975 5.64697 13 5.64697C12.1025 5.64697 11.375 6.37073 11.375 7.26353C11.375 8.15633 12.1025 8.88009 13 8.88009Z" fill="white"/>
<path d="M13 15.3463C13.8975 15.3463 14.625 14.6225 14.625 13.7297C14.625 12.8369 13.8975 12.1132 13 12.1132C12.1025 12.1132 11.375 12.8369 11.375 13.7297C11.375 14.6225 12.1025 15.3463 13 15.3463Z" fill="white"/>
<path d="M13 21.2736C13.8975 21.2736 14.625 20.5499 14.625 19.6571C14.625 18.7643 13.8975 18.0405 13 18.0405C12.1025 18.0405 11.375 18.7643 11.375 19.6571C11.375 20.5499 12.1025 21.2736 13 21.2736Z" fill="white"/>
</svg>
