<svg width="21" height="19" viewBox="0 0 21 19" fill="none" xmlns="http://www.w3.org/2000/svg">
<ellipse cx="10.2857" cy="9.45586" rx="3.34286" ry="3.04412" stroke="#9A9A9A" stroke-width="1.5"/>
<path d="M18.6158 7.57734H16.8777C16.5991 7.57734 16.3687 7.43641 16.2612 7.20269C16.1555 6.96702 16.2092 6.71921 16.4057 6.5403L17.6352 5.42104C17.8149 5.2574 17.9138 5.03856 17.9138 4.80641C17.9138 4.57387 17.8149 4.35503 17.6352 4.18982L16.0682 2.76325C15.7071 2.4344 15.0777 2.4344 14.7166 2.76325L13.4871 3.8825C13.2907 4.06141 13.0186 4.11192 12.7619 4.01404C12.5031 3.91617 12.3488 3.70673 12.3488 3.45305V1.87027C12.3488 1.38992 11.9206 1 11.3931 1H9.17788C8.65083 1 8.22265 1.38992 8.22265 1.87027V3.45305C8.22265 3.70673 8.06789 3.91617 7.81124 4.01404C7.55288 4.11192 7.28032 4.06141 7.08386 3.8825L5.8548 2.76325C5.49411 2.4344 4.86389 2.4344 4.50278 2.76325L2.93624 4.18982C2.75655 4.35346 2.65724 4.57387 2.65724 4.80641C2.65724 5.03856 2.75655 5.2574 2.93624 5.42104L4.16531 6.5403C4.36177 6.71921 4.41551 6.96702 4.31019 7.20269C4.20443 7.43641 3.97229 7.57734 3.69415 7.57734H1.95608C1.4286 7.57734 1 7.96726 1 8.44722V10.4645C1 10.9449 1.4286 11.3348 1.95608 11.3348H3.69415C3.97229 11.3348 4.20271 11.4754 4.31019 11.711C4.41766 11.9447 4.36177 12.1926 4.16531 12.3715L2.93624 13.4907C2.75655 13.6544 2.65724 13.8748 2.65724 14.1057C2.65724 14.3395 2.75655 14.5583 2.93624 14.7219L4.50278 16.1489C4.86389 16.4774 5.49411 16.4774 5.8548 16.1489L7.08386 15.0293C7.28032 14.8504 7.55288 14.8014 7.81124 14.8977C8.06789 14.9956 8.22265 15.205 8.22265 15.4591V17.0419C8.22265 17.5218 8.65083 17.9118 9.17788 17.9118H11.3931C11.9206 17.9118 12.3488 17.5218 12.3488 17.0419V15.4591C12.3488 15.205 12.5031 14.9956 12.7602 14.8977C13.0186 14.7998 13.2907 14.8504 13.4871 15.0293L14.7166 16.1489C15.0777 16.4774 15.7071 16.4774 16.0682 16.1489L17.6352 14.7219C17.8149 14.5583 17.9138 14.3395 17.9138 14.1057C17.9138 13.8748 17.8149 13.6559 17.6352 13.4907L16.4057 12.3715C16.2092 12.1926 16.1555 11.9447 16.2612 11.711C16.3674 11.4754 16.5991 11.3348 16.8777 11.3348H18.6158C19.1433 11.3348 19.5714 10.9449 19.5714 10.4645V8.44722C19.5714 7.96726 19.1433 7.57734 18.6158 7.57734" stroke="#9A9A9A" stroke-width="1.5"/>
</svg>
