<?xml version="1.0" encoding="utf-8"?>
<!-- Generator: Adobe Illustrator 27.9.0, SVG Export Plug-In . SVG Version: 6.00 Build 0)  -->
<svg version="1.1" id="레이어_1" xmlns="http://www.w3.org/2000/svg" xmlns:xlink="http://www.w3.org/1999/xlink" x="0px"
	 y="0px" viewBox="0 0 78 40" style="enable-background:new 0 0 78 40;" xml:space="preserve">
<style type="text/css">
	.st0{fill-rule:evenodd;clip-rule:evenodd;fill:#FEFEFE;}
	.st1{fill:#FFFFFF;}
</style>
<g>
	<g>
		<path class="st0" d="M72,30.9c-27.3,16.8-52.3,6.5-61.5-0.8l2.4-2.4c8.3,6.7,31.6,16.3,57.2,0.6L72,30.9z"/>
	</g>
	<g>
		<path class="st1" d="M22.7,14.4c-1.3,2.1-2.8,3.8-4.5,5.2s-3,2.1-4.1,2.1c-1.2,0-1.7-0.8-1.7-2.3c0-0.6,0.1-1.5,0.2-2.8l0.6-5.8
			c0-0.1,0-0.4,0.1-1l0.1-1.1c0-0.3,0.1-0.6,0.1-0.9c0-0.7-0.2-1-0.6-1c-0.9,0-1.8,1-2.9,3C9.8,9.6,9.7,9.4,9.7,9.2
			c0-0.7,0.6-1.7,1.9-2.9C13,5.1,14,4.5,14.7,4.5c1,0,1.5,0.7,1.5,2c0,0.3,0,0.7-0.1,1.1L16,9l-0.2,1.5l-0.5,5
			c-0.1,0.9-0.1,1.7-0.1,2.6c0,0.8,0.3,1.2,0.9,1.2c1.3,0,2.8-1.1,4.5-3.3s2.6-4.3,2.9-6.5L24,5.4l2.8-1c-0.3,1.4-0.6,2.6-0.7,3.6
			l-1.1,7.3c-0.1,0.4-0.1,0.8-0.1,1.1l-0.1,1c-0.1,0.6-0.1,1-0.1,1.3c0,0.5,0.1,0.8,0.4,0.8c1,0,2-1.1,3-3.3
			c0.3,0.2,0.5,0.4,0.5,0.6c0,0.4-0.5,1.2-1.5,2.5c-1.4,1.7-2.6,2.5-3.8,2.5c-0.9,0-1.3-0.6-1.3-1.7c0-0.4,0-0.8,0.1-1.5l0.2-1.4
			c0.1-0.8,0.2-1.3,0.2-1.5L22.7,14.4z"/>
		<path class="st1" d="M43.8,20.7l-2.6,1.1l0.1-0.5l0.1-1.3l0.1-1.2l0.9-7.9l0.1-0.9c0-0.5,0.1-0.9,0.1-1.4c0-1.1-0.3-1.7-1-1.7
			c-1.1,0-2.3,1.1-3.8,3.3c-1.4,2.2-2.3,4.3-2.5,6.3l-0.4,4.2l-2.6,1.1l0.1-0.5l0.1-1.3l0.1-1.2l0.9-8.2l0.1-0.9
			c0.1-0.7,0.1-1.3,0.1-1.8c0-0.8-0.2-1.1-0.6-1.1c-0.9,0-1.8,1-2.8,3c-0.3-0.2-0.4-0.4-0.4-0.6c0-0.7,0.6-1.7,1.9-2.9
			c1.3-1.2,2.3-1.8,3-1.8c1,0,1.5,0.6,1.5,1.9c0,0.3,0,0.8-0.1,1.3l-0.1,1.4L36,10.4l-0.1,1.2l0.5-0.8c2.6-4.2,5-6.3,7.3-6.3
			c1.1,0,1.6,0.8,1.6,2.4c0,0.3,0,0.8-0.1,1.7L45,10.2l-0.2,2.2c1.1-2.3,2.4-4.1,3.9-5.6s2.8-2.2,4-2.2c1.2,0,1.7,0.8,1.7,2.2
			c0,0.6-0.1,1.4-0.2,2.3l-0.9,6.5c-0.2,1.3-0.3,2.4-0.3,3.1c0,0.6,0.2,0.9,0.5,0.9c0.4,0,0.9-0.3,1.5-1c0.6-0.7,1.1-1.4,1.5-2.3
			c0.3,0.2,0.5,0.4,0.5,0.6c0,0.7-0.7,1.7-2,3c-1.3,1.2-2.3,1.9-3.1,1.9c-1,0-1.5-0.7-1.5-2c0-0.8,0.1-2.2,0.4-3.9l0.6-4.2
			c0-0.2,0.1-0.5,0.1-1c0-0.2,0.1-0.6,0.1-1.1c0.1-0.5,0.1-0.9,0.1-1.2c0-1-0.3-1.5-1-1.5c-1.1,0-2.4,1.1-3.8,3.3
			c-1.4,2.2-2.3,4.3-2.5,6.3L43.8,20.7z"/>
		<path class="st1" d="M69,15.8c0.3,0.2,0.4,0.4,0.4,0.7c0,0.4-0.4,1-1.1,1.9c-2,2.3-4,3.5-5.9,3.5c-1.2,0-2.2-0.5-2.9-1.4
			s-1.2-2.2-1.2-3.6c0-2.7,1-5.4,3-8.1s4-4.1,6-4.1c1.4,0,2.1,0.8,2.1,2.3c0,1.7-0.8,3.4-2.5,5c-1.7,1.6-3.7,2.8-6.1,3.4
			c0.2,2.8,1.3,4.2,3.3,4.2C66.2,19.5,67.8,18.3,69,15.8z M61,13.2c0.3,0.1,0.6,0.2,0.9,0.2c1.4,0,2.7-0.4,3.8-1.3
			c1.1-0.9,1.6-1.9,1.6-3.1c0-1.4-0.7-2.1-2.1-2.1c-1,0-1.9,0.6-2.7,1.8S61.2,11.3,61,13.2z"/>
	</g>
</g>
</svg>
