<svg width="70" height="70" viewBox="0 0 70 70" fill="none" xmlns="http://www.w3.org/2000/svg">
<circle cx="35" cy="35" r="35" fill="#D9D9D9"/>
<circle cx="35.5386" cy="24.7692" r="16.1538" fill="#B9B9B9"/>
<path d="M61.3845 58.1539C56.5383 64.0769 49.5383 69.4616 35.5383 70C22.0768 69.4616 17.2306 66.2308 8.61523 58.1539C10.2306 45.7693 22.6945 33.3846 36.0768 33.3846C49.4591 33.3846 60.3075 46.8462 61.3845 58.1539Z" fill="#B9B9B9"/>
<rect x="29.0771" y="19.3846" width="2.15385" height="4.30769" rx="1.07692" fill="#D9D9D9"/>
<rect x="39.8457" y="19.3846" width="2.15385" height="4.30769" rx="1.07692" fill="#D9D9D9"/>
<path d="M43.0776 25.8461C42.5392 29.0747 39.7026 31.7692 35.5392 31.7692C31.3758 31.7692 28.5388 29.0746 28.0007 25.8461C27.7184 24.1523 29.2521 28.9125 32.6086 30.3775C34.4198 31.168 36.6585 31.168 38.4698 30.3775C41.8264 28.9125 43.3601 24.1523 43.0776 25.8461Z" fill="#D9D9D9"/>
</svg>
