<svg width="15" height="15" viewBox="0 0 15 15" fill="none" xmlns="http://www.w3.org/2000/svg">
<path d="M5.36944 11.7974H5.03333C2.34444 11.7974 1 11.1623 1 7.98658V4.81086C1 2.27029 2.34444 1 5.03333 1H10.4111C13.1 1 14.4444 2.27029 14.4444 4.81086V7.98658C14.4444 10.5271 13.1 11.7974 10.4111 11.7974H10.075C9.86661 11.7974 9.66494 11.8927 9.53722 12.0515L8.52889 13.3218C8.08522 13.8807 7.35922 13.8807 6.91556 13.3218L5.90722 12.0515C5.79967 11.9118 5.55094 11.7974 5.36944 11.7974Z" stroke="black" stroke-width="0.810022" stroke-miterlimit="10" stroke-linecap="round" stroke-linejoin="round"/>
<path d="M10.4091 6.71619H10.4149" stroke="black" stroke-width="1.08003" stroke-linecap="round" stroke-linejoin="round"/>
<path d="M7.71935 6.71619H7.72529" stroke="black" stroke-width="1.08003" stroke-linecap="round" stroke-linejoin="round"/>
<path d="M5.03 6.71613H5.03593" stroke="black" stroke-width="1.08003" stroke-linecap="round" stroke-linejoin="round"/>
</svg>
