<svg width="29" height="29" viewBox="0 0 29 29" fill="none" xmlns="http://www.w3.org/2000/svg">
<path d="M20.2461 0H8.28963C3.09613 0 0 3.09613 0 8.28963V20.2318C0 25.4396 3.09613 28.5357 8.28963 28.5357H20.2318C25.4253 28.5357 28.5215 25.4396 28.5215 20.2461V8.28963C28.5357 3.09613 25.4396 0 20.2461 0ZM12.7697 22.1295C12.356 22.5432 11.5712 22.9427 11.0005 23.0283L7.49063 23.5277C7.36222 23.542 7.23381 23.5562 7.1054 23.5562C6.52041 23.5562 5.97823 23.3565 5.593 22.9713C5.12216 22.5004 4.92241 21.8156 5.03656 21.0594L5.53593 17.5495C5.62154 16.9645 6.00677 16.194 6.43481 15.7803L12.7983 9.41679C12.9124 9.71641 13.0266 10.016 13.1835 10.3585C13.3262 10.6581 13.4831 10.972 13.6543 11.2573C13.797 11.4999 13.954 11.7282 14.0824 11.8994C14.2393 12.1419 14.4248 12.3702 14.539 12.4986C14.6103 12.5985 14.6674 12.6699 14.6959 12.6984C15.0526 13.1264 15.4664 13.5259 15.8231 13.8256C15.9229 13.9254 15.98 13.9825 16.0085 13.9968C16.2226 14.168 16.4366 14.3392 16.6221 14.4676C16.8503 14.6388 17.0786 14.7958 17.3212 14.9242C17.6065 15.0954 17.9204 15.2523 18.2343 15.4093C18.5625 15.552 18.8621 15.6804 19.1617 15.7803L12.7697 22.1295ZM21.9297 12.9695L20.6171 14.2964C20.5315 14.382 20.4173 14.4248 20.3032 14.4248C20.2604 14.4248 20.2033 14.4248 20.1748 14.4105C17.2784 13.583 14.967 11.2716 14.1395 8.37523C14.0966 8.21829 14.1395 8.04707 14.2536 7.9472L15.5805 6.62029C17.7492 4.45157 19.8181 4.49438 21.944 6.62029C23.0283 7.70464 23.5562 8.7462 23.5562 9.83056C23.542 10.8578 23.0141 11.8851 21.9297 12.9695Z" fill="black"/>
</svg>
