<svg width="14" height="13" viewBox="0 0 14 13" fill="none" xmlns="http://www.w3.org/2000/svg">
<path d="M4.12016 10.6066L6.01678 12.075C6.26151 12.3197 6.81213 12.4421 7.17922 12.4421H9.50409C10.2383 12.4421 11.0336 11.8914 11.2172 11.1573L12.6855 6.69107C12.9914 5.83454 12.4408 5.10035 11.5231 5.10035H9.07582C8.70874 5.10035 8.40283 4.79445 8.46402 4.36618L8.76992 2.40839C8.89228 1.85777 8.5252 1.24596 7.97457 1.06242C7.48512 0.878873 6.87331 1.1236 6.62859 1.49068L4.12016 5.22271" stroke="black" stroke-miterlimit="10"/>
<path d="M1 10.6065V4.6108C1 3.75427 1.36709 3.44836 2.22362 3.44836H2.83543C3.69196 3.44836 4.05904 3.75427 4.05904 4.6108V10.6065C4.05904 11.463 3.69196 11.7689 2.83543 11.7689H2.22362C1.36709 11.7689 1 11.463 1 10.6065Z" stroke="black" stroke-linecap="round" stroke-linejoin="round"/>
</svg>
