<svg width="26" height="14" viewBox="0 0 26 14" fill="none" xmlns="http://www.w3.org/2000/svg">
<path d="M5.448 8.868C7.848 8.868 9.384 9.66 9.384 10.98C9.384 12.276 7.848 13.068 5.448 13.068C3.048 13.068 1.512 12.276 1.512 10.98C1.512 9.66 3.048 8.868 5.448 8.868ZM5.448 10.068C3.948 10.068 3.096 10.38 3.096 10.98C3.096 11.568 3.948 11.868 5.448 11.868C6.948 11.868 7.8 11.568 7.8 10.98C7.8 10.38 6.948 10.068 5.448 10.068ZM1.632 2.448H8.664V3.708H1.632V2.448ZM0.504 6.912H10.512V8.184H0.504V6.912ZM4.212 4.98H5.796V7.236H4.212V4.98ZM7.74 2.448H9.324V3.36C9.324 4.236 9.324 5.184 9.024 6.336L7.44 6.168C7.74 5.028 7.74 4.224 7.74 3.36V2.448ZM13.7871 8.976H15.4191V13.068H13.7871V8.976ZM17.6271 8.976H19.2591V13.068H17.6271V8.976ZM11.5191 8.136H21.5871V9.42H11.5191V8.136ZM16.5231 2.328C18.8991 2.328 20.5431 3.3 20.5431 4.824C20.5431 6.324 18.8991 7.296 16.5231 7.296C14.1591 7.296 12.5151 6.324 12.5151 4.824C12.5151 3.3 14.1591 2.328 16.5231 2.328ZM16.5231 3.6C15.0711 3.6 14.1471 4.032 14.1471 4.824C14.1471 5.604 15.0711 6.036 16.5231 6.036C17.9871 6.036 18.8991 5.604 18.8991 4.824C18.8991 4.032 17.9871 3.6 16.5231 3.6Z" fill="#727272"/>
</svg>
