<svg width="28" height="21" viewBox="0 0 28 21" fill="none" xmlns="http://www.w3.org/2000/svg">
<path d="M20.4716 20.7462H7.47374C1.74171 20.7462 0 19.1576 0 13.9296V13.3368C0 12.8508 0.441926 12.4477 0.974836 12.4477C2.22263 12.4477 3.24945 11.5112 3.24945 10.3731C3.24945 9.23501 2.22263 8.29847 0.974836 8.29847C0.441926 8.29847 0 7.8954 0 7.40935V6.8166C0 1.58856 1.74171 0 7.47374 0H20.4716C26.2036 0 27.9453 1.58856 27.9453 6.8166V8.00209C27.9453 8.48815 27.5034 8.89122 26.9705 8.89122C25.7227 8.89122 24.6958 9.82776 24.6958 10.9658C24.6958 12.1039 25.7227 13.0404 26.9705 13.0404C27.5034 13.0404 27.9453 13.4435 27.9453 13.9296C27.9453 19.1576 26.2036 20.7462 20.4716 20.7462ZM1.94967 14.1192C1.97567 18.1974 2.89851 18.9679 7.47374 18.9679H20.4716C24.8128 18.9679 25.8656 18.2685 25.9826 14.712C24.1239 14.3089 22.7462 12.7796 22.7462 10.9658C22.7462 9.15202 24.1369 7.62274 25.9956 7.21967V6.8166C25.9956 2.58438 25.1248 1.77824 20.4716 1.77824H7.47374C2.89851 1.77824 1.97567 2.54882 1.94967 6.62692C3.80836 7.02999 5.19912 8.55928 5.19912 10.3731C5.19912 12.1869 3.80836 13.7162 1.94967 14.1192Z" fill="black"/>
<path d="M11.3732 4.74198C10.8402 4.74198 10.3983 4.33891 10.3983 3.85286V0.889122C10.3983 0.403068 10.8402 0 11.3732 0C11.9061 0 12.348 0.403068 12.348 0.889122V3.85286C12.348 4.33891 11.9061 4.74198 11.3732 4.74198Z" fill="black"/>
<path d="M11.3732 13.4319C10.8402 13.4319 10.3983 13.0288 10.3983 12.5428V8.19203C10.3983 7.70592 10.8402 7.30286 11.3732 7.30286C11.9061 7.30286 12.348 7.70592 12.348 8.19203V12.5428C12.348 13.0407 11.9061 13.4319 11.3732 13.4319Z" fill="black"/>
<path d="M11.3732 20.7463C10.8402 20.7463 10.3983 20.3432 10.3983 19.8571V16.8934C10.3983 16.4073 10.8402 16.0043 11.3732 16.0043C11.9061 16.0043 12.348 16.4073 12.348 16.8934V19.8571C12.348 20.3432 11.9061 20.7463 11.3732 20.7463Z" fill="black"/>
</svg>
