<?xml version="1.0" encoding="UTF-8"?>
<svg id="_레이어_1" data-name="레이어 1" xmlns="http://www.w3.org/2000/svg" viewBox="0 0 14400 14400">
  <defs>
    <style>
      .cls-1 {
        fill: #eb3030;
      }
    </style>
  </defs>
  <path class="cls-1" d="m7176.74,7184.48h39.39v-118.44h-39.39v118.44Zm19.69,78.96c5.58,0,10.26-1.89,14.04-5.69,3.77-3.78,5.65-8.46,5.65-14.05s-1.88-10.28-5.65-14.07c-3.78-3.78-8.46-5.67-14.04-5.67s-10.25,1.89-14.02,5.67c-3.78,3.79-5.67,8.48-5.67,14.07s1.89,10.28,5.67,14.05c3.77,3.79,8.44,5.69,14.02,5.69Zm-196.94,138.18v-355.32c0-10.86,3.86-20.15,11.58-27.89,7.71-7.72,16.98-11.59,27.81-11.59h315.1c10.83,0,20.11,3.86,27.83,11.59,7.71,7.74,11.56,17.04,11.56,27.89v236.88c0,10.86-3.85,20.15-11.56,27.89-7.72,7.73-16.99,11.59-27.83,11.59h-275.71l-78.77,78.96Z"/>
</svg>