<?xml version="1.0" encoding="utf-8"?>
<!-- Generator: Adobe Illustrator 27.7.0, SVG Export Plug-In . SVG Version: 6.00 Build 0)  -->
<svg version="1.1" id="레이어_1" xmlns="http://www.w3.org/2000/svg" xmlns:xlink="http://www.w3.org/1999/xlink" x="0px"
	 y="0px" viewBox="0 0 224 121" style="enable-background:new 0 0 224 121;" xml:space="preserve">
<style type="text/css">
	.st0{fill-rule:evenodd;clip-rule:evenodd;fill:#3E7FE0;}
	.st1{fill:#3E7FE0;}
</style>
<path class="st0" d="M206,105.4c-82.6,27.5-159,11.5-187,0l1-2.3c27.5,11.3,103.3,27.3,185.2,0L206,105.4z"/>
<path class="st1" d="M23.6,86.1h1v10.8h-1V86.1z M18.9,87c1.6,0,2.7,1.5,2.7,3.8s-1.1,3.8-2.7,3.8s-2.7-1.5-2.7-3.8S17.3,87,18.9,87
	z M18.9,87.8c-1.1,0-1.8,1.1-1.8,2.9s0.7,2.9,1.8,2.9c1,0,1.8-1.1,1.8-2.9C20.7,89,20,87.8,18.9,87.8z M32.2,91.2L31.7,92
	c-1-0.4-1.7-1.2-2.1-2.1c-0.4,1-1.2,1.9-2.2,2.4l-0.5-0.8c1.4-0.6,2.2-2.1,2.2-3.3v-1.5H30v1.5C30,89.4,30.8,90.7,32.2,91.2z
	 M28.7,94v-0.8h7.2v3.7h-1V94H28.7z M35,86.1h0.9v6.5H35v-2.9h-1.4v2.8h-0.9v-6.3h0.9v2.6H35V86.1z M42.3,91.4v-2h-3v2H42.3z
	 M43.3,86.9v5.3h-5v-5.3h1v1.8h3v-1.8H43.3z M40.5,93.3v2.6h6.2v0.8h-7.2v-3.4H40.5z M46.2,89.4h1.6v0.8h-1.6V94h-1v-7.9h1V89.4z
	 M50.3,90.9v2.6c1.6,0,2.9-0.1,4.5-0.3l0.1,0.8c-1.7,0.3-3.1,0.3-4.8,0.3h-0.8v-4.2H53v-2.3h-3.7V87H54v3.9H50.3z M56.8,86.1h1v10.8
	h-1v-4.6h-2.2v-0.8h2.2v-2.1h-2.1v-0.8h2.1V86.1z M64.8,96.1c1.7,0,2.7-0.4,2.7-1.2s-1-1.2-2.7-1.2c-1.7,0-2.7,0.4-2.7,1.2
	S63.1,96.1,64.8,96.1z M64.8,93c2.3,0,3.7,0.7,3.7,1.9s-1.4,1.9-3.7,1.9c-2.3,0-3.7-0.7-3.7-1.9S62.5,93,64.8,93z M65.3,91.4h4.4
	v0.8H60v-0.8h4.4v-1.2h-3.2v-3.6h7.3v0.8h-6.3v2h6.4v0.8h-3.2L65.3,91.4L65.3,91.4z M78.5,89v-1.7h-5.3V89H78.5z M79.5,86.5v3.3
	h-7.2v-3.3H79.5z M80.7,91.5h-4.4v1.1h3.1V95h-6.3v1h6.6v0.8h-7.6v-2.6h6.3v-1h-6.3v-0.7h3.2v-1.1H71v-0.8h9.7V91.5z M87.6,92.2
	l-1-0.1c0.3-1.8,0.3-3.1,0.3-4h-4.5v-0.8h5.4v0.6C87.9,88.8,87.9,90.2,87.6,92.2z M85.2,90.4v3.3c1.2,0,2.4-0.1,3.5-0.3l0.1,0.7
	c-2.2,0.4-4.8,0.4-6.7,0.4L82,93.7c0.7,0,1.5,0,2.3,0v-3.3C84.3,90.4,85.2,90.4,85.2,90.4z M92,90.6v0.8h-1.7v5.4h-1V86.1h1v4.5H92z
	 M102.1,87.3v0.8h-6.3v-0.8h2.7V86h1v1.2h2.6C102.1,87.2,102.1,87.3,102.1,87.3z M97.3,90.5c0,0.7,0.6,1.2,1.6,1.2s1.6-0.5,1.6-1.2
	s-0.7-1.2-1.6-1.2S97.3,89.8,97.3,90.5z M101.5,90.5c0,1.2-1,1.9-2.6,1.9c-1.5,0-2.6-0.7-2.6-1.9c0-1.2,1-1.9,2.6-1.9
	S101.5,89.3,101.5,90.5z M98.3,94v2h4.8v-2H98.3z M97.3,96.7v-3.5h6.8v3.5H97.3z M105.7,89v0.8h-1.6v2.8h-1v-6.5h1V89H105.7z
	 M107,87.4h2.4c0,2.3-0.3,4.8-1.8,6.9l-0.8-0.4c1.3-1.7,1.7-3.7,1.8-5.7H107V87.4z M113,90.3v-3.9h0.9v9.9H113v-5.2h-1.5
	c-0.3,1.3-0.7,2.7-1.6,3.9l-0.8-0.4c1.5-1.9,1.7-4.3,1.8-6.4h-1.2v-0.8h2c0,0.9,0,1.9-0.1,2.9H113z M115,86.1h0.9v10.8H115V86.1z
	 M121,93.7c1,0,1.7-0.7,1.7-1.7s-0.7-1.7-1.7-1.7s-1.7,0.7-1.7,1.7S120,93.7,121,93.7z M121,89.5c1.5,0,2.6,1,2.6,2.5
	s-1.1,2.5-2.6,2.5s-2.6-1-2.6-2.5C118.4,90.6,119.5,89.5,121,89.5z M121.5,86.3v1.6h2.7v0.8h-6.3v-0.8h2.7v-1.6H121.5z M127.9,90.6
	v0.8h-1.8v5.5h-1V86.1h1v4.4L127.9,90.6L127.9,90.6z M137.5,89.4v0.8h-7.3v-3.6h1v2.8C131.2,89.4,137.5,89.4,137.5,89.4z
	 M131.1,93.5v2.3h6.5v0.8h-7.5v-3.1C130.1,93.5,131.1,93.5,131.1,93.5z M128.8,91.6h9.8v0.8h-9.8V91.6z M148.8,90.5l0.1,0.8
	c-1.5,0.3-2.8,0.4-5,0.4h-0.8V87h4.8v0.8H144v3.1C146.2,90.9,147.4,90.8,148.8,90.5z M147.5,96.1c1.6,0,2.6-0.5,2.6-1.3
	s-1-1.3-2.6-1.3s-2.6,0.5-2.6,1.3S145.9,96.1,147.5,96.1z M147.5,92.7c2.2,0,3.5,0.8,3.5,2.1c0,1.3-1.4,2.1-3.5,2.1
	c-2.2,0-3.6-0.8-3.6-2.1S145.3,92.7,147.5,92.7z M150.9,88.9h1.6v0.8h-1.6v2.8h-1v-6.4h1V88.9z M162.4,86.1V94h-1v-7.9H162.4z
	 M160.1,91.5l-0.5,0.8c-1.2-0.5-2.2-1.4-2.7-2.7c-0.5,1.3-1.4,2.4-2.7,2.9l-0.5-0.8c1.6-0.6,2.7-2.2,2.7-3.9v-1.1h1v1.1
	C157.4,89.4,158.5,90.9,160.1,91.5z M156.5,95.8h6.3v0.8h-7.2v-3.4h1v2.6H156.5z M168.1,86.9c1.7,0,2.9,1,2.9,2.5s-1.2,2.5-2.9,2.5
	s-2.9-1-2.9-2.5C165.3,87.9,166.5,86.9,168.1,86.9z M168.1,87.8c-1.1,0-1.9,0.7-1.9,1.7s0.8,1.7,1.9,1.7c1.1,0,1.9-0.7,1.9-1.7
	C170.1,88.4,169.3,87.8,168.1,87.8z M172.4,86.1h1v10.8h-1V86.1z M164.8,94.5l-0.1-0.8c2,0,4.7,0,7-0.4l0.1,0.7
	C169.4,94.5,166.8,94.5,164.8,94.5z M179.2,87.2h4.9c0,3.1-1.1,6-5,7.9l-0.5-0.8c2-1,3.2-2.2,3.9-3.6l-3.7,0.3l-0.2-0.9l4.2-0.3
	c0.2-0.6,0.3-1.2,0.3-1.9h-3.9V87.2z M186.2,86.1h1v10.8h-1V86.1z M194.2,87.3c-1.6,0-2.7,0.6-2.7,1.6s1.1,1.6,2.7,1.6
	c1.6,0,2.8-0.6,2.8-1.6C197,88,195.9,87.3,194.2,87.3z M194.2,91.3c-2.2,0-3.8-0.9-3.8-2.4c0-1.4,1.5-2.4,3.8-2.4
	c2.2,0,3.8,0.9,3.8,2.4S196.5,91.3,194.2,91.3z M199.1,92.3v0.8h-4.4v3.8h-1v-3.8h-4.4v-0.8H199.1z M201.1,87.2h4.9v7h-4.9V87.2z
	 M205,88h-3v5.4h3V88z M208.3,86.1h1v10.8h-1V86.1z"/>
<path class="st1" d="M78.1,60c0,4.4,0.6,6.6,1.8,6.6c0.7,0,1.6-0.5,2.7-1.4s2.1-1.9,3.2-3s2-2.1,2.9-3s1.5-1.4,1.9-1.4
	c0.7,0,1,0.8,1,2.4c0,3.4-1.7,6.6-5.1,9.8c-3.4,3.2-7,4.8-10.8,4.8c-2.4,0-4-1-4.9-3.1c-0.7-1.7-1-4.4-1-8.1
	c-3.2,7.4-8,11.2-14.3,11.2c-4.3,0-7.7-1.1-10.2-3.2c-2.5-2.2-3.7-5.5-3.7-10.2c0-1.1,0.6-4,1.8-8.7c1.2-4.8,2.2-8.6,3-11.7
	c0.7-3.1,1.1-5.5,1.1-7.3c0-3.9-1-5.8-3-5.8c-0.7,0-1.3,0.2-1.9,0.6c-0.5,0.4-1.1,0.8-1.7,1.2c-0.5,0.4-1.1,0.8-1.7,1.2
	s-1.2,0.6-2,0.6c-0.7,0-1.1-0.6-1.1-1.9c0-2.6,1.2-4.8,3.7-6.5c2.4-1.7,5.2-2.6,8.4-2.6s5.7,1.3,7.3,4c1.2,2,1.9,4.2,1.9,6.7
	c0,2.4-0.3,4.8-0.8,7.2c-0.5,2.3-1.1,4.7-1.7,7.1s-1.1,4.9-1.7,7.5c-0.5,2.5-0.8,4.6-0.8,6.2s0.1,2.6,0.2,3.2
	c0.7,2.1,2.3,3.2,4.9,3.2c3.4,0,6.3-2.1,8.8-6.3c2.1-3.6,3.6-7.9,4.5-13l0.4-3.2l-0.3-15c0-2.2,1-4,2.9-5.5c1.9-1.4,3.9-2.1,6-2.1
	c0.9,0,1.4,0.6,1.7,1.9c0.2,1.2,0.4,2.6,0.4,4.2s-0.1,3-0.3,4.5c-0.2,1.4-0.4,3-0.7,4.9c-0.2,1.8-0.5,3.8-0.9,5.9
	C78.6,50.6,78,56.6,78.1,60z M164.5,57.6c0.8,0,1.2,1.1,1.2,3.3c0,1.2-0.5,2.7-1.5,4.4s-2.3,3.2-4,4.7c-1.6,1.4-3.4,2.5-5.3,3.5
	c-1.9,1-4.1,1.4-6.3,1.4s-3.9-0.7-5.1-2.1c-1.2-1.4-1.8-3-1.8-4.8s0.3-3.8,0.9-6c0.6-2.2,1.2-4.5,1.9-6.9c1.8-6.4,2.8-10.9,2.8-13.5
	c0-1.1-0.1-1.9-0.4-2.5s-0.8-0.9-1.7-0.9c-1.4,0-3,0.9-4.6,2.6s-3.2,3.9-4.6,6.6c-3.3,6.1-5.1,12.1-5.3,18c0.1,0.7,0.2,1.3,0.3,2
	s0.1,1.4,0.1,2.2c0,1.5-0.8,3-2.3,4.2s-3.2,1.9-5,1.9c-1.1,0-1.9-0.5-2.4-1.6s-0.8-2.4-0.8-4s0.4-3.7,1.1-6.5
	c0.7-2.8,1.5-5.6,2.4-8.7c2.3-8.1,3.5-14.2,3.5-18.1c0-2-0.3-3.6-0.8-4.8s-1.4-1.7-2.9-1.7c-2.6,0-5.2,1.8-7.7,5.5
	s-4.8,9.4-6.8,17.2c-0.5,2-0.9,3.8-1.2,5.3l-0.1,1.4c0.9,4.4,1.4,7.3,1.4,8.6c0,2.8-1,4.7-3,5.6c-0.9,0.4-1.8,0.8-2.7,1.2
	c-0.8,0.4-1.7,0.6-2.7,0.6c-2.4,0-3.6-2.3-3.6-6.8c0-4.6,1.3-13.6,3.8-26.9c0.9-4.8,1.4-7.5,1.4-8.1c0-3.9-1-5.8-3-5.8
	c-0.7,0-1.3,0.2-1.9,0.6c-0.5,0.4-1.1,0.8-1.7,1.2c-0.5,0.4-1.1,0.8-1.7,1.2c-0.6,0.4-1.2,0.6-2,0.6c-0.7,0-1.1-0.6-1.1-1.9
	c0-2.6,1.2-4.8,3.7-6.5c2.4-1.7,5.2-2.6,8.6-2.6c4.3,0,6.9,2,7.6,6c0.2,1.2,0.3,2.5,0.4,3.8c3.6-6.7,8-10,13.5-10
	c5.9,0,9.3,2.8,10.2,8.5c0.3,1.6,0.4,3.4,0.4,5.3v0.6c3.1-4.3,6.8-6.5,11.1-6.5c6,0,9.1,3.6,9.1,10.9c0,3.2-0.5,6.9-1.5,11.2
	c-1,4.2-1.7,7.3-2.2,9.1c-0.4,1.8-0.6,3.2-0.6,4.2c0,1.8,0.6,2.7,1.9,2.7s4.3-2.5,9.1-7.5C163.5,58.1,164.1,57.6,164.5,57.6z
	 M177.6,72.9c0,1.3-1,2-2.9,2c-3,0-5.1-0.6-6.2-1.7c-1.1-1.2-1.7-3.2-1.7-6c0-4.3,1.2-11.2,3.5-20.7c2.4-9.5,4.6-16.6,6.6-21.2
	c0.5-1.2,1.3-2.3,2.2-3.4c1-1.1,2.2-1.7,3.8-1.7c0.7,0,1.2,0.4,1.7,1.2s0.7,1.8,0.7,2.8s-0.2,2.6-0.6,4.8c-0.4,2.1-0.9,4.4-1.4,7.1
	c-0.6,2.7-1.2,5.6-1.9,8.7C178.9,56.8,177.6,66.1,177.6,72.9z"/>
</svg>
