<svg width="94" height="16" viewBox="0 0 94 16" fill="none" xmlns="http://www.w3.org/2000/svg">
<path d="M10.4675 0.832H11.7795V15.216H10.4675V0.832ZM4.2115 1.936C6.3395 1.936 7.8595 3.888 7.8595 6.944C7.8595 10 6.3395 11.952 4.2115 11.952C2.0835 11.952 0.5635 10 0.5635 6.944C0.5635 3.888 2.0835 1.936 4.2115 1.936ZM4.2115 3.12C2.8035 3.12 1.8115 4.624 1.8115 6.944C1.8115 9.28 2.8035 10.784 4.2115 10.784C5.6035 10.784 6.5955 9.28 6.5955 6.944C6.5955 4.624 5.6035 3.12 4.2115 3.12ZM22.3703 4.8H25.2503V0.848H26.5783V11.36H25.2503V5.872H22.3703V4.8ZM23.2183 8.176L22.5623 9.2C20.9623 8.624 19.7303 7.424 19.1063 5.952C18.4823 7.584 17.1703 8.912 15.4903 9.52L14.8023 8.496C16.9303 7.728 18.4183 5.824 18.4183 3.792V3.072H15.2183V2H22.8823V3.072H19.7303V3.776C19.7303 5.648 21.1383 7.44 23.2183 8.176ZM18.7223 13.792H26.9783V14.864H17.3943V10.432H18.7223V13.792ZM35.1813 4.528C35.1813 5.792 36.2053 6.672 37.5973 6.672C39.0053 6.672 40.0293 5.792 40.0293 4.528C40.0293 3.296 39.0053 2.4 37.5973 2.4C36.2053 2.4 35.1813 3.296 35.1813 4.528ZM41.3093 4.528C41.3093 6.432 39.7573 7.744 37.5973 7.744C35.4533 7.744 33.9013 6.432 33.9013 4.528C33.9013 2.656 35.4533 1.344 37.5973 1.344C39.7573 1.344 41.3093 2.656 41.3093 4.528ZM36.9733 12.336V13.936H45.2933V14.992H35.6933V11.36H43.4693V9.856H35.6453V8.816H44.7653V12.336H36.9733ZM44.7653 3.92H46.8933V5.008H44.7653V8.144H43.4533V0.832H44.7653V3.92ZM57.068 7.136L57.212 8.192C54.86 8.576 52.908 8.656 50.252 8.656H49.1V4.592H54.284V2.768H49.052V1.696H55.58V5.6H50.38V7.584C52.924 7.584 54.796 7.504 57.068 7.136ZM52.124 11.184V13.936H58.844V11.184H52.124ZM50.844 14.992V10.144H60.124V14.992H50.844ZM58.812 0.848H60.124V9.344H58.812V0.848ZM70.055 5.488V8.128H77.383V5.488H70.055ZM74.375 12.272H80.231V13.344H67.223V12.272H73.047V9.184H68.759V1.856H70.055V4.416H77.383V1.856H78.663V9.184H74.375V12.272ZM82.7898 2.384H89.5098C89.5098 6.528 87.6058 10.176 82.8378 12.512L82.1338 11.44C85.9898 9.6 87.9098 6.848 88.1818 3.44H82.7898V2.384ZM92.4058 0.832H93.7178V15.184H92.4058V0.832Z" fill="black"/>
</svg>
