<svg width="792" height="735" viewBox="0 0 1142 985" fill="none" xmlns="http://www.w3.org/2000/svg">
<path d="M711.75 662.14H400.42" stroke="black" stroke-width="45.46" stroke-miterlimit="10"/>
<path d="M160.08 662.14H52.22C38.41 662.14 27.22 650.95 27.22 637.14V51.36C27.22 37.55 38.41 26.36 52.22 26.36H999.45C1013.26 26.36 1024.45 37.55 1024.45 51.36V474.14" stroke="black" stroke-width="43.46" stroke-miterlimit="10"/>
<path d="M221.48 14.62C232.7 33.64 239.06 55.31 239.06 78.3C239.06 153.82 170.53 215.04 86 215.04C66.8 215.04 48.43 211.88 31.5 206.12" stroke="black" stroke-width="47.26" stroke-miterlimit="10"/>
<path d="M834.46 14.62C823.24 33.64 816.88 55.31 816.88 78.3C816.88 153.82 885.41 215.04 969.94 215.04C989.14 215.04 1007.51 211.88 1024.44 206.12" stroke="black" stroke-width="47.26" stroke-miterlimit="10"/>
<path d="M273.68 653.49C350.116 653.49 412.08 599.939 412.08 533.88C412.08 467.821 350.116 414.27 273.68 414.27C197.244 414.27 135.28 467.821 135.28 533.88C135.28 599.939 197.244 653.49 273.68 653.49Z" stroke="#6777FE" stroke-width="42.1" stroke-miterlimit="10"/>
<path d="M389.05 599.98C390.82 601.45 391.94 603.66 391.94 606.14V846.2C391.89 848.3 391.52 851.83 389.1 853.6C373.93 864.71 320.59 774.87 267.78 781.68C225.9 787.08 170.97 854.97 163.42 854.21C159.73 853.84 157.76 851.87 157.76 851.87C156.31 850.42 155.42 848.42 155.42 846.21V606.15C155.42 601.73 159 598.15 163.42 598.15" stroke="#6777FE" stroke-width="42.1" stroke-miterlimit="10"/>
<path d="M722.99 159.26H370.93C365.468 159.26 361.04 163.686 361.04 169.145C361.04 174.604 365.468 179.03 370.93 179.03H722.99C728.452 179.03 732.88 174.604 732.88 169.145C732.88 163.686 728.452 159.26 722.99 159.26Z" stroke="#6777FE" stroke-width="23.47" stroke-miterlimit="10"/>
<path d="M750.92 260.12H239.36C233.898 260.12 229.47 264.546 229.47 270.005C229.47 275.464 233.898 279.89 239.36 279.89H750.92C756.382 279.89 760.81 275.464 760.81 270.005C760.81 264.546 756.382 260.12 750.92 260.12Z" stroke="black" stroke-width="28.06" stroke-miterlimit="10"/>
<path d="M702.45 358.28H391.48C386.338 358.28 382.17 362.448 382.17 367.59V368.74C382.17 373.882 386.338 378.05 391.48 378.05H702.45C707.592 378.05 711.76 373.882 711.76 368.74V367.59C711.76 362.448 707.592 358.28 702.45 358.28Z" stroke="#6777FE" stroke-width="22.1" stroke-miterlimit="10"/>
<path d="M1033.76 579.99C1035.72 589.76 1036.74 599.84 1036.74 610.15C1036.74 699.2 960.34 771.4 866.1 771.4C771.86 771.4 695.46 699.21 695.46 610.15C695.46 598.82 696.7 587.75 699.05 577.08" stroke="black" stroke-width="35.02" stroke-miterlimit="10"/>
<path d="M665.88 591.88C665.88 488.26 756.14 404.25 867.49 404.25C978.84 404.25 1069.1 488.25 1069.1 591.88" stroke="#6777FE" stroke-width="41.07" stroke-miterlimit="10"/>
<path d="M1107.86 570.1H621.79C616.383 570.1 612 574.483 612 579.89V580.08C612 585.487 616.383 589.87 621.79 589.87H1107.86C1113.27 589.87 1117.65 585.487 1117.65 580.08V579.89C1117.65 574.483 1113.27 570.1 1107.86 570.1Z" stroke="#6777FE" stroke-width="27.37" stroke-miterlimit="10"/>
<path d="M851.7 360.14V443.47C851.7 449.153 856.307 453.76 861.99 453.76H870.21C875.893 453.76 880.5 449.153 880.5 443.47V360.14C880.5 354.457 875.893 349.85 870.21 349.85H861.99C856.307 349.85 851.7 354.457 851.7 360.14Z" fill="#6777FE" stroke="#6777FE" stroke-width="14.98" stroke-miterlimit="10"/>
<path d="M626.47 966.47C626.45 965.5 626.44 964.54 626.44 963.57C626.44 857.44 738.03 771.4 875.68 771.4C1013.33 771.4 1124.92 857.44 1124.92 963.57C1124.92 966.4 1124.84 969.21 1124.68 972.01" stroke="black" stroke-width="33.3" stroke-miterlimit="10"/>
<path d="M1124.36 974.3H638.16C634.97 974.3 620.25 975.2 620.25 972.01L632.38 968.53C632.38 965.34 634.97 962.76 638.15 962.76H1124.35C1127.54 962.76 1130.12 965.35 1130.12 968.53L1130.7 971.17C1130.7 974.36 1127.54 974.3 1124.35 974.3H1124.36Z" stroke="black" stroke-width="20.76" stroke-miterlimit="10"/>
</svg>
