<svg width="1216" height="1216" viewBox="0 0 1216 1216" fill="none" xmlns="http://www.w3.org/2000/svg">
<mask id="mask0_19_7" style="mask-type:luminance" maskUnits="userSpaceOnUse" x="50" y="50" width="1090" height="1116">
<path d="M1127.33 506.667H608V722H906.933C879.067 858.8 762.533 937.333 608 937.333C425.6 937.333 278.667 790.4 278.667 608C278.667 425.6 425.6 278.667 608 278.667C686.533 278.667 757.467 306.533 813.2 352.133L975.333 190C876.533 103.867 749.867 50.6666 608 50.6666C298.933 50.6666 50.6667 298.933 50.6667 608C50.6667 917.067 298.933 1165.33 608 1165.33C886.667 1165.33 1140 962.667 1140 608C1140 575.067 1134.93 539.6 1127.33 506.667Z" fill="white"/>
</mask>
<g mask="url(#mask0_19_7)">
<path d="M0 937.333V278.667L430.667 608L0 937.333Z" fill="#FBBC05"/>
</g>
<mask id="mask1_19_7" style="mask-type:luminance" maskUnits="userSpaceOnUse" x="50" y="50" width="1090" height="1116">
<path d="M1127.33 506.667H608V722H906.933C879.067 858.8 762.533 937.333 608 937.333C425.6 937.333 278.667 790.4 278.667 608C278.667 425.6 425.6 278.667 608 278.667C686.533 278.667 757.467 306.533 813.2 352.133L975.333 190C876.533 103.867 749.867 50.6666 608 50.6666C298.933 50.6666 50.6667 298.933 50.6667 608C50.6667 917.067 298.933 1165.33 608 1165.33C886.667 1165.33 1140 962.667 1140 608C1140 575.067 1134.93 539.6 1127.33 506.667Z" fill="white"/>
</mask>
<g mask="url(#mask1_19_7)">
<path d="M0 278.667L430.667 608L608 453.467L1216 354.667V0H0V278.667Z" fill="#EA4335"/>
</g>
<mask id="mask2_19_7" style="mask-type:luminance" maskUnits="userSpaceOnUse" x="50" y="50" width="1090" height="1116">
<path d="M1127.33 506.667H608V722H906.933C879.067 858.8 762.533 937.333 608 937.333C425.6 937.333 278.667 790.4 278.667 608C278.667 425.6 425.6 278.667 608 278.667C686.533 278.667 757.467 306.533 813.2 352.133L975.333 190C876.533 103.867 749.867 50.6666 608 50.6666C298.933 50.6666 50.6667 298.933 50.6667 608C50.6667 917.067 298.933 1165.33 608 1165.33C886.667 1165.33 1140 962.667 1140 608C1140 575.067 1134.93 539.6 1127.33 506.667Z" fill="white"/>
</mask>
<g mask="url(#mask2_19_7)">
<path d="M0 937.333L760 354.667L960.133 380L1216 0V1216H0V937.333Z" fill="#34A853"/>
</g>
<mask id="mask3_19_7" style="mask-type:luminance" maskUnits="userSpaceOnUse" x="50" y="50" width="1090" height="1116">
<path d="M1127.33 506.667H608V722H906.933C879.067 858.8 762.533 937.333 608 937.333C425.6 937.333 278.667 790.4 278.667 608C278.667 425.6 425.6 278.667 608 278.667C686.533 278.667 757.467 306.533 813.2 352.133L975.333 190C876.533 103.867 749.867 50.6666 608 50.6666C298.933 50.6666 50.6667 298.933 50.6667 608C50.6667 917.067 298.933 1165.33 608 1165.33C886.667 1165.33 1140 962.667 1140 608C1140 575.067 1134.93 539.6 1127.33 506.667Z" fill="white"/>
</mask>
<g mask="url(#mask3_19_7)">
<path d="M1216 1216L430.667 608L329.333 532L1216 278.667V1216Z" fill="#4285F4"/>
</g>
</svg>
