<svg width="200" height="100" viewBox="0 0 680 817" fill="none" xmlns="http://www.w3.org/2000/svg">
<g clip-path="url(#clip0_7_2)">
<path d="M767.67 246.96C767.67 314.69 732.51 400.9 678.18 480.95C655.81 514.82 627.05 550.79 601.48 578.5C553.54 627.76 473.64 627.76 425.7 578.5C400.13 550.79 371.37 514.81 349 480.95C294.67 400.9 259.51 314.69 259.51 246.96C259.52 111.49 374.57 0.650024 515.19 0.650024C655.81 0.650024 767.67 111.49 767.67 246.96Z" fill="#FF6977" stroke="black" stroke-width="25" stroke-miterlimit="5.21"/>
<path d="M275.5 745.73C265.91 742.65 256.32 736.49 246.74 733.41" stroke="black" stroke-width="25" stroke-miterlimit="5.21"/>
<path d="M617.46 582.55C668.59 588.71 716.53 601.02 751.69 613.34C780.45 625.66 802.82 637.97 818.8 650.29C831.58 662.61 834.78 671.84 834.78 678C834.78 684.16 831.58 693.39 818.8 705.71C806.02 718.03 783.64 730.34 751.69 742.66C690.97 767.29 607.87 779.61 515.19 779.61C470.45 779.61 425.7 776.53 387.35 770.37" stroke="black" stroke-width="25" stroke-miterlimit="5.21"/>
<path d="M246.74 733.41C230.76 724.17 217.98 718.02 208.39 708.78C195.61 696.46 192.41 687.23 192.41 681.07C192.41 674.91 195.61 665.68 208.39 653.36C221.17 641.04 243.55 628.73 275.5 616.41C313.85 601.02 364.99 588.7 419.32 582.54" stroke="black" stroke-width="25" stroke-miterlimit="5.21"/>
<path d="M710.15 444C774.07 459.39 831.6 477.87 879.53 505.58C972.21 554.84 1023.35 622.58 1023.35 684.15C1023.35 730.33 997.78 776.51 949.84 819.62" stroke="black" stroke-width="25" stroke-miterlimit="5.21"/>
<path d="M812.42 893.51C729.33 924.3 623.86 945.85 512 945.85C364.99 945.85 237.15 915.06 144.47 862.72C51.79 813.46 0.650024 745.73 0.650024 684.15C0.650024 622.57 48.59 554.84 144.47 505.58C192.41 480.95 249.94 459.4 313.85 444" stroke="black" stroke-width="25" stroke-miterlimit="5.21"/>
<path d="M889.12 918.15C924.422 918.15 953.04 890.58 953.04 856.57C953.04 822.56 924.422 794.99 889.12 794.99C853.818 794.99 825.2 822.56 825.2 856.57C825.2 890.58 853.818 918.15 889.12 918.15Z" fill="#3E7FE0" stroke="black" stroke-width="25" stroke-miterlimit="5.21"/>
<path d="M307.46 816.54C342.762 816.54 371.38 788.97 371.38 754.96C371.38 720.95 342.762 693.38 307.46 693.38C272.158 693.38 243.54 720.95 243.54 754.96C243.54 788.97 272.158 816.54 307.46 816.54Z" fill="#9FE2B7" stroke="black" stroke-width="25" stroke-miterlimit="5.21"/>
<path d="M512 370.11C582.604 370.11 639.84 314.974 639.84 246.96C639.84 178.946 582.604 123.81 512 123.81C441.396 123.81 384.16 178.946 384.16 246.96C384.16 314.974 441.396 370.11 512 370.11Z" fill="white" stroke="black" stroke-width="25" stroke-miterlimit="5.21"/>
</g>
<defs>
<clipPath id="clip0_7_2">
<rect width="1534" height="3326.5" fill="white"/>
</clipPath>
</defs>
</svg>
