<svg width="1165" height="1068" viewBox="0 0 1165 1068" fill="none" xmlns="http://www.w3.org/2000/svg">
<path d="M1164.08 452.7C1164.08 702.72 903.49 905.4 582.03 905.4C525.81 905.4 470.51 900.74 470.51 900.74C470.51 900.74 469.19 900.55 467.76 900.73C465.8 900.98 258.9 1080.22 226.34 1067.08C226.34 1067.08 211.78 1006.49 258.22 828.97C258.16 828.93 258.07 828.89 257.97 828.83C257.82 828.74 257.63 828.63 257.46 828.53C-1.72974 678.77 0.000300244 452.7 0.000300244 452.7C0.000300244 286.07 139.68 173.23 194.02 129.34C216.14 111.47 367.47 0 582.05 0C840.74 0 1164.1 200.92 1164.1 452.7H1164.08Z" fill="#0F0900"/>
</svg>
