<svg width="136" height="113" viewBox="0 0 136 113" fill="none" xmlns="http://www.w3.org/2000/svg">
<path d="M78 0H5C2.23858 0 0 2.23858 0 5V85C0 87.7614 2.23858 90 5 90H78C80.7614 90 83 87.7614 83 85V5C83 2.23858 80.7614 0 78 0Z" fill="#90BAE1"/>
<path d="M0 5C0 2.23858 2.23858 0 5 0H78C80.7614 0 83 2.23858 83 5V15H0V5Z" fill="#4482C3"/>
<path d="M7 9C8.10457 9 9 8.10457 9 7C9 5.89543 8.10457 5 7 5C5.89543 5 5 5.89543 5 7C5 8.10457 5.89543 9 7 9Z" fill="#ADC22C"/>
<path d="M15 9C16.1046 9 17 8.10457 17 7C17 5.89543 16.1046 5 15 5C13.8954 5 13 5.89543 13 7C13 8.10457 13.8954 9 15 9Z" fill="#DA2323"/>
<path d="M23 9C24.1046 9 25 8.10457 25 7C25 5.89543 24.1046 5 23 5C21.8954 5 21 5.89543 21 7C21 8.10457 21.8954 9 23 9Z" fill="#30D9E3"/>
<path d="M75 5H60C58.8954 5 58 5.89543 58 7C58 8.10457 58.8954 9 60 9H75C76.1046 9 77 8.10457 77 7C77 5.89543 76.1046 5 75 5Z" fill="#D9D9D9"/>
<path d="M13 23H9C7.89543 23 7 23.8954 7 25C7 26.1046 7.89543 27 9 27H13C14.1046 27 15 26.1046 15 25C15 23.8954 14.1046 23 13 23Z" fill="#E98A75"/>
<path d="M38 23H20C18.8954 23 18 23.8954 18 25C18 26.1046 18.8954 27 20 27H38C39.1046 27 40 26.1046 40 25C40 23.8954 39.1046 23 38 23Z" fill="#4482C3"/>
<path d="M52 32H20C18.8954 32 18 32.8954 18 34C18 35.1046 18.8954 36 20 36H52C53.1046 36 54 35.1046 54 34C54 32.8954 53.1046 32 52 32Z" fill="#4482C3"/>
<path d="M29 41H20C18.8954 41 18 41.8954 18 43C18 44.1046 18.8954 45 20 45H29C30.1046 45 31 44.1046 31 43C31 41.8954 30.1046 41 29 41Z" fill="#4482C3"/>
<path d="M42 50H20C18.8954 50 18 50.8954 18 52C18 53.1046 18.8954 54 20 54H42C43.1046 54 44 53.1046 44 52C44 50.8954 43.1046 50 42 50Z" fill="#D9D9D9"/>
<path d="M42 50H20C18.8954 50 18 50.8954 18 52C18 53.1046 18.8954 54 20 54H42C43.1046 54 44 53.1046 44 52C44 50.8954 43.1046 50 42 50Z" fill="#4482C3"/>
<path d="M66 59H20C18.8954 59 18 59.8954 18 61C18 62.1046 18.8954 63 20 63H66C67.1046 63 68 62.1046 68 61C68 59.8954 67.1046 59 66 59Z" fill="#4482C3"/>
<path d="M13 59H9C7.89543 59 7 59.8954 7 61C7 62.1046 7.89543 63 9 63H13C14.1046 63 15 62.1046 15 61C15 59.8954 14.1046 59 13 59Z" fill="#E98A75"/>
<path d="M34 68H20C18.8954 68 18 68.8954 18 70C18 71.1046 18.8954 72 20 72H34C35.1046 72 36 71.1046 36 70C36 68.8954 35.1046 68 34 68Z" fill="#4482C3"/>
<path d="M66 68H42C40.8954 68 40 68.8954 40 70C40 71.1046 40.8954 72 42 72H66C67.1046 72 68 71.1046 68 70C68 68.8954 67.1046 68 66 68Z" fill="#4482C3"/>
<path d="M70 50H50C48.8954 50 48 50.8954 48 52C48 53.1046 48.8954 54 50 54H70C71.1046 54 72 53.1046 72 52C72 50.8954 71.1046 50 70 50Z" fill="#4482C3"/>
<path d="M66 32H60C58.8954 32 58 32.8954 58 34C58 35.1046 58.8954 36 60 36H66C67.1046 36 68 35.1046 68 34C68 32.8954 67.1046 32 66 32Z" fill="#4482C3"/>
<path d="M13 32H9C7.89543 32 7 32.8954 7 34C7 35.1046 7.89543 36 9 36H13C14.1046 36 15 35.1046 15 34C15 32.8954 14.1046 32 13 32Z" fill="#E98A75"/>
<path d="M13 41H9C7.89543 41 7 41.8954 7 43C7 44.1046 7.89543 45 9 45H13C14.1046 45 15 44.1046 15 43C15 41.8954 14.1046 41 13 41Z" fill="#E98A75"/>
<path d="M13 50H9C7.89543 50 7 50.8954 7 52C7 53.1046 7.89543 54 9 54H13C14.1046 54 15 53.1046 15 52C15 50.8954 14.1046 50 13 50Z" fill="#E98A75"/>
<path d="M13 68H9C7.89543 68 7 68.8954 7 70C7 71.1046 7.89543 72 9 72H13C14.1046 72 15 71.1046 15 70C15 68.8954 14.1046 68 13 68Z" fill="#E98A75"/>
<path d="M51 77H20C18.8954 77 18 77.8954 18 79C18 80.1046 18.8954 81 20 81H51C52.1046 81 53 80.1046 53 79C53 77.8954 52.1046 77 51 77Z" fill="#4482C3"/>
<path d="M13 77H9C7.89543 77 7 77.8954 7 79C7 80.1046 7.89543 81 9 81H13C14.1046 81 15 80.1046 15 79C15 77.8954 14.1046 77 13 77Z" fill="#E98A75"/>
<path d="M103 49H75C72.2386 49 70 51.2386 70 54V105C70 107.761 72.2386 110 75 110H103C105.761 110 108 107.761 108 105V54C108 51.2386 105.761 49 103 49Z" fill="#547580"/>
<path d="M103 49H75C72.2386 49 70 51.2386 70 54V98C70 100.761 72.2386 103 75 103H103C105.761 103 108 100.761 108 98V54C108 51.2386 105.761 49 103 49Z" fill="#B0D3F0"/>
<path d="M79 69H77C75.8954 69 75 69.8954 75 71C75 72.1046 75.8954 73 77 73H79C80.1046 73 81 72.1046 81 71C81 69.8954 80.1046 69 79 69Z" fill="#E98A75"/>
<path d="M75 87C75 85.8954 75.8954 85 77 85H79C80.1046 85 81 85.8954 81 87C81 88.1046 80.1046 89 79 89H77C75.8954 89 75 88.1046 75 87Z" fill="#E98A75"/>
<path d="M75 95C75 93.8954 75.8954 93 77 93H79C80.1046 93 81 93.8954 81 95C81 96.1046 80.1046 97 79 97H77C75.8954 97 75 96.1046 75 95Z" fill="#E98A75"/>
<path d="M75 79C75 77.8954 75.8954 77 77 77H79C80.1046 77 81 77.8954 81 79C81 80.1046 80.1046 81 79 81H77C75.8954 81 75 80.1046 75 79Z" fill="#E98A75"/>
<path d="M79 61H77C75.8954 61 75 61.8954 75 63C75 64.1046 75.8954 65 77 65H79C80.1046 65 81 64.1046 81 63C81 61.8954 80.1046 61 79 61Z" fill="#E98A75"/>
<path d="M101 61H86C84.8954 61 84 61.8954 84 63C84 64.1046 84.8954 65 86 65H101C102.105 65 103 64.1046 103 63C103 61.8954 102.105 61 101 61Z" fill="#56A4ED" fill-opacity="0.54"/>
<path d="M97 69H86C84.8954 69 84 69.8954 84 71C84 72.1046 84.8954 73 86 73H97C98.1046 73 99 72.1046 99 71C99 69.8954 98.1046 69 97 69Z" fill="#56A4ED" fill-opacity="0.54"/>
<path d="M100 77H86C84.8954 77 84 77.8954 84 79C84 80.1046 84.8954 81 86 81H100C101.105 81 102 80.1046 102 79C102 77.8954 101.105 77 100 77Z" fill="#56A4ED" fill-opacity="0.54"/>
<path d="M90 85H86C84.8954 85 84 85.8954 84 87C84 88.1046 84.8954 89 86 89H90C91.1046 89 92 88.1046 92 87C92 85.8954 91.1046 85 90 85Z" fill="#56A4ED" fill-opacity="0.54"/>
<path d="M99 85H97C95.8954 85 95 85.8954 95 87C95 88.1046 95.8954 89 97 89H99C100.105 89 101 88.1046 101 87C101 85.8954 100.105 85 99 85Z" fill="#56A4ED" fill-opacity="0.54"/>
<path d="M84 95C84 93.8954 84.8954 93 86 93H97C98.1046 93 99 93.8954 99 95C99 96.1046 98.1046 97 97 97H86C84.8954 97 84 96.1046 84 95Z" fill="#56A4ED" fill-opacity="0.54"/>
<path d="M98.6013 49.0003C96.4864 56.2983 97.4864 56.7983 89.4864 56.7983C80.9864 56.7983 81.4864 56.2983 80 49C84.9864 49.0002 84.2533 49.0002 89.5 49.0002C94.7467 49.0002 94.9864 49.0003 98.6013 49.0003Z" fill="#547580"/>
<path d="M123.5 79C116.61 79 111 84.6034 111 91.5C111 98.3966 116.61 104 123.5 104C130.39 104 136 98.3966 136 91.5C136 84.6034 130.39 79 123.5 79ZM121 97.0172L116.366 92.3836L118.134 90.6164L121 93.4828L127.626 86.8664L129.394 88.6336L121 97.0172Z" fill="#2BAF50"/>
</svg>
